PathFileType	4	(X/Y/Z)	C:/Users/opensim2020/Desktop/walking_exp_matlab/subject06_walking14_straight_03.trc	
DataRate	CameraRate	NumFrames	NumMarkers	Units	OrigDataRate	OrigDataStartFrame	OrigNumFrames	
100.00	100.00	4	45	mm	100.00	2382	233	
Frame#	Time	LFHD			RFHD			LBHD			RBHD			C7			T10			CLAV			STRN			RBAK			LSHO			LUPA			LELB			LFRM			LWRA			LWRB			LFIN			RSHO			RUPA			RELB			RFRM			RWRA			RWRB			RFIN			LASI			RASI			LPSI			RPSI			LTHI			LKNE			LTIB			LANK			LHEE			LTOE			RTHI			RKNE			RTIB			RANK			RHEE			RTOE			*39			*40			*41			*42			*43			*44			
		X1	Y1	Z1	X2	Y2	Z2	X3	Y3	Z3	X4	Y4	Z4	X5	Y5	Z5	X6	Y6	Z6	X7	Y7	Z7	X8	Y8	Z8	X9	Y9	Z9	X10	Y10	Z10	X11	Y11	Z11	X12	Y12	Z12	X13	Y13	Z13	X14	Y14	Z14	X15	Y15	Z15	X16	Y16	Z16	X17	Y17	Z17	X18	Y18	Z18	X19	Y19	Z19	X20	Y20	Z20	X21	Y21	Z21	X22	Y22	Z22	X23	Y23	Z23	X24	Y24	Z24	X25	Y25	Z25	X26	Y26	Z26	X27	Y27	Z27	X28	Y28	Z28	X29	Y29	Z29	X30	Y30	Z30	X31	Y31	Z31	X32	Y32	Z32	X33	Y33	Z33	X34	Y34	Z34	X35	Y35	Z35	X36	Y36	Z36	X37	Y37	Z37	X38	Y38	Z38	X39	Y39	Z39	X40	Y40	Z40	X41	Y41	Z41	X42	Y42	Z42	X43	Y43	Z43	X44	Y44	Z44	X45	Y45	Z45	

175	1.740	1368.89746	850.44440	1669.82874	1501.05310	855.99646	1661.99939	1374.14478	715.57233	1617.78076	1503.92175	722.09802	1615.06409	1431.21484	714.93341	1459.90320	1447.75854	678.00739	1131.87573	1433.89685	824.40173	1382.83008	1430.01355	864.74762	1206.88928	1512.48938	641.60059	1291.35193	1271.39746	768.58936	1410.49304	1208.88281	780.84558	1205.58191	1203.65173	792.52240	1092.65808	1185.34338	866.96387	962.82666	1222.61328	976.57971	892.44812	1195.90833	922.44006	856.75153	1189.72253	996.29315	805.96466	1594.36414	779.96631	1416.82642	1683.12000	725.55536	1222.07251	1695.71387	722.79919	1099.77539	1714.63928	725.84467	979.77435	1685.85645	769.60516	833.27148	1724.60999	715.65277	841.95605	1727.28577	741.81104	761.09460	1335.94336	845.33759	963.73840	1555.11841	861.79620	979.98810	1373.82617	690.37823	993.73486	1540.56812	708.12610	1006.61847	1286.35632	788.41180	645.34668	1302.91040	805.55914	483.08420	1315.29553	618.81549	321.90103	1354.89270	493.27576	205.41939	1403.90637	457.06329	220.70724	1351.83826	567.04181	82.22356	1614.27930	832.89819	645.65094	1584.79016	849.04480	522.31024	1582.66199	803.43756	257.89389	1533.51526	784.49854	73.51100	1491.28271	742.78845	50.74332	1529.26672	938.30792	37.84072	1430.65356	753.13971	1711.48987															 
176	1.750	1368.41357	860.30884	1670.53333	1500.14697	865.91400	1662.77905	1374.26331	725.47583	1618.32520	1504.04297	732.58472	1615.91089	1432.31531	725.56659	1460.87781	1449.07678	688.10028	1132.85291	1433.96997	834.65759	1383.60986	1429.98535	874.11310	1207.42651	1514.23474	652.29382	1292.52576	1271.74414	777.98340	1410.73474	1209.76331	788.11316	1205.37683	1204.45154	797.45459	1092.18542	1185.95325	868.66553	959.51965	1222.66382	975.48871	885.53473	1196.70422	919.78162	851.78986	1189.62817	991.68781	798.40668	1594.64624	791.75049	1417.65259	1684.32581	740.22870	1222.40063	1696.90466	738.92902	1100.07324	1715.72302	744.75824	980.25739	1685.85962	791.89667	835.16693	1725.05615	737.99890	842.12274	1727.39539	766.53619	762.16418	1336.49304	855.36780	965.00891	1555.93250	871.38440	980.39709	1374.38574	700.21692	994.73328	1541.13000	717.75262	1007.18451	1286.41003	803.46985	646.99017	1302.85645	824.03394	485.16776	1315.69214	639.24908	322.05862	1355.52209	514.87720	204.41194	1405.06335	478.72177	218.56500	1350.45117	591.22888	83.19252	1614.30859	838.45502	645.47473	1585.25085	852.64600	521.68445	1582.34216	804.61633	257.96451	1533.35632	784.63733	73.55584	1491.40759	743.05914	50.83101	1529.31750	938.20398	37.80959	1430.45471	763.20624	1712.19604															 
177	1.760	1367.86157	870.16754	1671.00061	1499.98059	876.71014	1663.69690	1374.11755	735.09064	1618.78979	1504.11121	743.03668	1616.63086	1432.51770	735.49780	1461.42407	1450.29639	697.92456	1133.82703	1433.95862	844.78772	1384.08923	1430.09875	883.77057	1207.87964	1515.81750	662.88489	1293.58801	1272.05688	787.46252	1410.95239	1210.15552	795.28699	1205.32361	1204.97205	802.93652	1091.96301	1186.82410	869.23700	956.76257	1222.66980	973.74127	878.70325	1197.42139	916.60486	846.94995	1189.36206	986.49341	791.15802	1594.89087	803.29919	1418.48401	1685.53760	754.88098	1222.78845	1698.24438	755.29303	1100.55884	1716.54724	763.98712	980.76727	1685.61218	814.28699	837.28680	1725.52612	760.81079	842.55646	1727.42627	791.63403	763.56628	1337.24719	865.48132	966.30042	1556.58655	880.92261	980.59424	1374.91858	710.07587	995.74011	1541.66309	727.47577	1007.62909	1286.36108	818.48071	648.56219	1303.03772	842.19788	487.18918	1315.98376	660.06708	321.48212	1355.93518	537.28699	202.24313	1405.86401	501.02975	215.23187	1348.01111	617.61041	84.01575	1614.21387	844.12164	645.24664	1585.93188	856.55267	521.35638	1582.02112	806.15460	257.93604	1533.18518	784.75049	73.61385	1490.95532	742.88318	50.93719	1529.42358	938.17584	37.88307	1430.23523	773.32153	1712.79736															 
178	1.770	1367.23926	879.97168	1671.28467	1498.96167	886.66895	1664.20569	1374.65820	745.74182	1619.30640	1504.13440	753.46356	1617.25684	1433.06006	745.63617	1461.94971	1451.41418	707.73462	1134.42407	1434.06116	854.95978	1384.56287	1430.35498	893.71283	1208.22314	1517.20789	673.44440	1294.46753	1272.37512	796.92511	1411.13391	1210.48328	802.76617	1205.24939	1205.56189	808.42407	1091.77173	1187.24634	870.12677	953.92120	1222.51477	971.62592	872.15509	1197.97498	913.00183	842.53894	1189.20605	980.68787	784.30902	1594.98669	814.49518	1419.26929	1686.64270	769.34625	1223.27539	1699.29468	771.54352	1101.03711	1717.44092	783.24457	981.56195	1685.19238	836.87000	839.67889	1726.00659	783.97656	843.39349	1727.39868	817.16309	765.49646	1337.89746	874.96332	967.18860	1557.16064	890.46375	980.67297	1375.39209	719.88733	996.52856	1542.16968	737.17365	1007.98761	1286.32581	833.19354	650.12122	1303.18408	860.17804	489.26376	1316.20483	681.23151	320.32788	1356.21777	560.61609	198.97192	1406.34668	523.99866	210.74205	1347.43433	643.63190	83.10014	1614.08838	849.95520	644.92065	1586.19556	860.71576	520.65234	1581.67944	808.07635	257.87695	1533.08582	784.96570	73.67847	1490.84570	742.84851	50.99092	1529.44897	938.12738	38.01543	1429.86487	783.38147	1713.23083															 
